<?xml version="1.0" encoding="UTF-8"?>
<svg xmlns="http://www.w3.org/2000/svg" version="1.1" width="300" height="300" viewBox="0 0 300 300"><rect x="0" y="0" width="300" height="300" fill="#ffffff"/><g transform="scale(12)"><g transform="translate(0,0)"><path fill-rule="evenodd" d="M10 0L10 2L11 2L11 0ZM12 0L12 1L13 1L13 2L12 2L12 4L13 4L13 5L11 5L11 6L10 6L10 4L11 4L11 3L8 3L8 4L9 4L9 5L8 5L8 7L9 7L9 8L6 8L6 9L5 9L5 8L0 8L0 10L1 10L1 11L0 11L0 12L1 12L1 13L0 13L0 17L1 17L1 13L2 13L2 17L3 17L3 15L4 15L4 14L3 14L3 12L4 12L4 13L5 13L5 12L6 12L6 13L8 13L8 14L9 14L9 13L11 13L11 12L6 12L6 11L7 11L7 10L9 10L9 9L10 9L10 11L11 11L11 9L12 9L12 10L13 10L13 11L12 11L12 13L13 13L13 12L14 12L14 13L16 13L16 10L18 10L18 8L15 8L15 6L16 6L16 7L17 7L17 4L16 4L16 5L15 5L15 6L14 6L14 8L15 8L15 9L16 9L16 10L14 10L14 9L12 9L12 7L13 7L13 5L14 5L14 4L15 4L15 3L16 3L16 2L17 2L17 0L16 0L16 1L14 1L14 0ZM8 1L8 2L9 2L9 1ZM13 2L13 3L15 3L15 2ZM9 6L9 7L10 7L10 6ZM11 6L11 7L12 7L12 6ZM10 8L10 9L11 9L11 8ZM19 8L19 10L20 10L20 11L17 11L17 13L19 13L19 14L18 14L18 15L17 15L17 14L15 14L15 15L14 15L14 16L16 16L16 17L12 17L12 15L13 15L13 14L10 14L10 15L9 15L9 16L11 16L11 17L8 17L8 16L6 16L6 15L7 15L7 14L6 14L6 15L5 15L5 16L4 16L4 17L5 17L5 16L6 16L6 17L8 17L8 19L10 19L10 20L8 20L8 25L9 25L9 21L10 21L10 20L11 20L11 19L10 19L10 18L11 18L11 17L12 17L12 18L13 18L13 19L12 19L12 21L13 21L13 20L14 20L14 21L15 21L15 22L16 22L16 21L18 21L18 22L19 22L19 21L20 21L20 22L22 22L22 21L21 21L21 19L22 19L22 17L23 17L23 20L24 20L24 21L23 21L23 22L24 22L24 24L23 24L23 25L25 25L25 20L24 20L24 19L25 19L25 14L22 14L22 13L25 13L25 10L23 10L23 9L24 9L24 8L23 8L23 9L22 9L22 8L21 8L21 10L20 10L20 8ZM1 9L1 10L2 10L2 9ZM6 9L6 10L7 10L7 9ZM4 10L4 11L5 11L5 10ZM21 10L21 13L20 13L20 12L19 12L19 13L20 13L20 15L22 15L22 16L24 16L24 15L22 15L22 14L21 14L21 13L22 13L22 12L23 12L23 11L22 11L22 10ZM1 11L1 12L3 12L3 11ZM14 11L14 12L15 12L15 11ZM16 15L16 16L17 16L17 15ZM17 17L17 20L20 20L20 17ZM15 18L15 19L14 19L14 20L16 20L16 18ZM18 18L18 19L19 19L19 18ZM11 22L11 25L12 25L12 23L13 23L13 22ZM14 23L14 24L17 24L17 23ZM18 23L18 25L19 25L19 23ZM20 23L20 24L21 24L21 23ZM0 0L0 7L7 7L7 0ZM1 1L1 6L6 6L6 1ZM2 2L2 5L5 5L5 2ZM18 0L18 7L25 7L25 0ZM19 1L19 6L24 6L24 1ZM20 2L20 5L23 5L23 2ZM0 18L0 25L7 25L7 18ZM1 19L1 24L6 24L6 19ZM2 20L2 23L5 23L5 20Z" fill="#000000"/></g></g></svg>
